<svg width="38" height="31" viewBox="0 0 38 31" fill="none" xmlns="http://www.w3.org/2000/svg">
<path d="M19.3511 0C18.875 0 18.4622 0.161587 18.1138 0.484761L8.9609 8.97374H1.76C1.28282 8.97374 0.871122 9.13533 0.522673 9.4585C0.174224 9.78167 0 10.1645 0 10.6061V20.3939C0 20.8355 0.174224 21.2183 0.522673 21.5415C0.871122 21.8647 1.28393 22.0263 1.76 22.0263H8.9609L18.1138 30.5152C18.4622 30.8384 18.8739 31 19.3511 31C19.8283 31 20.24 30.8384 20.5884 30.5152C20.9369 30.1921 21.1111 29.8102 21.1111 29.3677V1.63234C21.1111 1.1908 20.9369 0.807935 20.5895 0.484761C20.2422 0.161587 19.8294 0 19.3522 0H19.3511Z" fill="white"/>
<path d="M29.5978 19.1322C30.3388 18.0152 30.7093 16.8083 30.7093 15.5104C30.7093 14.2125 30.3388 13.0015 29.5978 11.8751C28.8568 10.7488 27.8773 9.95521 26.656 9.49434C26.4818 9.40961 26.2633 9.36621 26.0026 9.36621C25.5498 9.36621 25.1571 9.52431 24.8257 9.83948C24.4942 10.1567 24.3285 10.5432 24.3285 11.004C24.3285 11.3626 24.433 11.6654 24.643 11.9123C24.8531 12.1593 25.1043 12.3732 25.4009 12.552C25.6965 12.7307 25.9931 12.9271 26.2897 13.141C26.5863 13.3549 26.8386 13.6566 27.0476 14.0493C27.2566 14.4419 27.3611 14.9286 27.3611 15.5083C27.3611 16.088 27.2566 16.5747 27.0476 16.9674C26.8386 17.3601 26.5863 17.6628 26.2897 17.8757C25.9931 18.0886 25.6965 18.2859 25.4009 18.4647C25.1043 18.6435 24.852 18.8574 24.643 19.1043C24.434 19.3513 24.3285 19.6551 24.3285 20.0126C24.3285 20.4735 24.4953 20.861 24.8257 21.1772C25.1571 21.4913 25.5487 21.6515 26.0026 21.6515C26.2633 21.6515 26.4818 21.6091 26.656 21.5234C27.8762 21.0449 28.8568 20.2472 29.5978 19.1291V19.1322Z" fill="white"/>
<path d="M35.7564 22.8583C37.2521 20.6113 38 18.1572 38 15.499C38 12.842 37.2521 10.3899 35.7564 8.1398C34.2606 5.89281 32.2812 4.25461 29.8191 3.23048C29.5912 3.14426 29.3621 3.1001 29.133 3.1001C28.676 3.1001 28.2797 3.26518 27.9452 3.59534C27.6107 3.9255 27.4445 4.3156 27.4445 4.76773C27.4445 5.44488 27.7875 5.95695 28.4736 6.30498C29.458 6.80864 30.127 7.19032 30.4786 7.45109C31.7805 8.389 32.7968 9.56454 33.5266 10.9798C34.2564 12.3951 34.6218 13.9008 34.6218 15.5001C34.6218 17.0973 34.2564 18.604 33.5266 20.0204C32.7968 21.4357 31.7805 22.6112 30.4786 23.5491C30.127 23.8099 29.458 24.1916 28.4736 24.6952C27.7875 25.0432 27.4445 25.5543 27.4445 26.2325C27.4445 26.6835 27.6117 27.0747 27.9452 27.4049C28.2786 27.735 28.6835 27.9001 29.1586 27.9001C29.3696 27.9001 29.5901 27.8559 29.8181 27.7697C32.2801 26.7445 34.2606 25.1084 35.7553 22.8593L35.7564 22.8583Z" fill="white"/>
</svg>
