<svg width="38" height="31" viewBox="0 0 38 31" fill="none" xmlns="http://www.w3.org/2000/svg">
<path d="M34.2053 15L37.6703 11.535C37.8901 11.3152 38 11.0474 38 10.7337C38 10.4199 37.8901 10.1522 37.6703 9.93234L36.0677 8.32972C35.8478 8.10991 35.5801 8 35.2663 8C34.9526 8 34.6848 8.10991 34.465 8.32972L31 11.7947L27.535 8.32972C27.3152 8.10991 27.0474 8 26.7337 8C26.4199 8 26.1522 8.10991 25.9323 8.32972L24.3297 9.93234C24.1099 10.1522 24 10.4199 24 10.7337C24 11.0474 24.1099 11.3152 24.3297 11.535L27.7947 15L24.3297 18.465C24.1099 18.6848 24 18.9526 24 19.2663C24 19.5801 24.1099 19.8478 24.3297 20.0677L25.9323 21.6703C26.1522 21.8901 26.4199 22 26.7337 22C27.0474 22 27.3152 21.8901 27.535 21.6703L31 18.2053L34.465 21.6703C34.6848 21.8901 34.9516 22 35.2663 22C35.5811 22 35.8478 21.8901 36.0677 21.6703L37.6703 20.0677C37.8901 19.8478 38 19.5801 38 19.2663C38 18.9526 37.8901 18.6848 37.6703 18.465L34.2053 15V15Z" fill="white"/>
<path d="M18.3326 0C17.8816 0 17.4905 0.161587 17.1604 0.484761L8.48928 8.97374H1.66737C1.21531 8.97374 0.825273 9.13533 0.495164 9.4585C0.165055 9.78167 0 10.1645 0 10.6061V20.3939C0 20.8355 0.165055 21.2183 0.495164 21.5415C0.825273 21.8647 1.21636 22.0263 1.66737 22.0263H8.48928L17.1604 30.5152C17.4905 30.8384 17.8806 31 18.3326 31C18.7847 31 19.1747 30.8384 19.5048 30.5152C19.8349 30.1921 20 29.8102 20 29.3677V1.63234C20 1.1908 19.8349 0.807935 19.5059 0.484761C19.1768 0.161587 18.7857 0 18.3337 0H18.3326Z" fill="white"/>
</svg>
